<?xml version="1.0" encoding="utf-8"?>
<!-- Generator: Adobe Illustrator 16.0.0, SVG Export Plug-In . SVG Version: 6.00 Build 0)  -->
<!DOCTYPE svg PUBLIC "-//W3C//DTD SVG 1.1//EN" "http://www.w3.org/Graphics/SVG/1.1/DTD/svg11.dtd">
<svg version="1.1" id="Layer_1" xmlns="http://www.w3.org/2000/svg" xmlns:xlink="http://www.w3.org/1999/xlink" x="0px" y="0px"
	 width="118.949px" height="118.301px" viewBox="0 0 118.949 118.301" enable-background="new 0 0 118.949 118.301"
	 xml:space="preserve">
<g>
	<g>
		<path fill="#F7F8F8" d="M90.141,29.75c-1.445-0.585-0.492-1.098-0.857-2.203c-0.168-0.508-0.883-0.797-1.361-0.926
			c-0.693-0.184-0.855,0.039-1.186,0.618c-0.316,0.56-0.254,1.293-0.795,1.806c-0.156,0.149-0.668,0.428-1.16,0.681
			c-0.496,0.252-51.222,24.017-51.813,24.27c-0.629,0.27-1.358,0.539-1.737,0.539c-0.903,0-2.031-1.013-2.469,0.068
			c-0.176,0.435-0.18,0.976-0.266,1.432c-0.148,0.78-0.062,0.826,0.651,1.085c1.448,0.528,0.468,1.05,0.81,2.111
			c0.155,0.486,0.873,0.748,1.354,0.859c0.696,0.158,0.867-0.062,1.216-0.631c0.336-0.55,0.447-0.935,1.009-1.447
			c0.145-0.132,0.578-0.373,1.03-0.606c0.452-0.234,51.549-24.389,51.868-24.526c0.619-0.264,1.48-0.54,1.985-0.451
			c0.879,0.155,1.771,1.038,2.171-0.067c0.162-0.444,0.15-1.004,0.225-1.473C90.938,30.088,90.852,30.039,90.141,29.75z"/>
	</g>
	<path fill="#F7F8F8" d="M29.186,29.75c1.442-0.585,0.491-1.098,0.856-2.203c0.168-0.508,0.883-0.797,1.361-0.926
		c0.691-0.184,0.854,0.039,1.183,0.618c0.316,0.56,0.254,1.293,0.795,1.806c0.157,0.149,0.667,0.428,1.16,0.681
		s51.171,24.017,51.762,24.27c0.629,0.27,1.356,0.539,1.734,0.539c0.902,0,2.031-1.013,2.467,0.068
		c0.176,0.435,0.18,0.976,0.266,1.432c0.147,0.78,0.062,0.826-0.65,1.085c-1.447,0.528-0.467,1.05-0.809,2.111
		c-0.156,0.486-0.873,0.748-1.354,0.859c-0.695,0.158-0.866-0.062-1.216-0.631c-0.337-0.55-0.445-0.935-1.007-1.447
		c-0.146-0.132-0.58-0.373-1.03-0.606c-0.452-0.234-51.499-24.389-51.817-24.526c-0.618-0.264-0.848-0.379-1.718-0.517
		c-0.881-0.14-2.033,1.104-2.434-0.001c-0.161-0.444-0.15-1.004-0.223-1.473C28.388,30.088,28.475,30.039,29.186,29.75z"/>
	<path fill="#F7F8F8" d="M75.738,38.454c0.082-6.267-0.586-13.83-3.492-19.089c-2.021,0.512-7.615,7.466-7.832,8.766L54.13,28.456
		c-1.299-2.382-4.347-5.642-6.156-7.451c-1.4-1.399-1.428-1.837-2.405-0.044c-1.337,2.454-1.958,6.622-1.984,9.352
		c-0.021,2.312,0.503,5.397,0.123,7.711c-0.026,0.07-0.052,0.139-0.078,0.211c-1.446,4.14-3.497,8.935-4.799,13.257
		c-1.15,3.819-2.397,7.672-2.464,11.654c2.165,0.089,3.575-1,5.057-1.188c0.225,3.853,0.138,7.28,0.854,11.088
		c2.218-0.639,4.198-2.896,5.662-4.31c0.911,3.121,3.298,8.863,5.977,10.647c1.119-1.361,1.372-3.578,2.58-4.709
		c0.845,1.09,1.563,2.895,2.203,2.715c1.068-0.301,1.922-3.432,2.8-4.891c2.848,1.967,5.292,4.412,8.417,6.088
		c1.636-3.111,2.183-7.239,2.838-10.631c2.177,1.323,4.638,2.459,6.871,3.313c0.449-2.324,0.084-1.338,0.433-8.034
		c1.203,0.496,1.407,1.177,2.455,0.886C82.408,61.15,78.003,43.551,75.738,38.454z"/>
	<path fill="#4E4D4E" d="M54.037,38.068c-0.989,0-1.77,0.944-1.726,1.896c0.047,1.021,0.91,1.726,1.896,1.726
		c0.989,0,1.77-0.945,1.726-1.896C55.885,38.772,55.022,38.068,54.037,38.068z"/>
	<path fill="#D1CFD1" d="M54.718,54.89c0.186,1.252-0.131,2.826,0.023,4.188c0.098,0.87-0.093,2.721,0.764,3.315
		c1.125,0.775,0.666-1.268,0.736-1.79c0.181-1.344,0.918-0.175,1.049,0.62c0.262,1.58,0.27,3.193,0.572,4.781
		c0.127,0.666,0.477,3.516,1.424,3.588c1.573,0.117,0.87-7.053,1.121-8.102c0.106-0.445,0.204-1.791,0.927-1.652
		c0.501,0.1,0.441,1.371,1.164,0.804c0.568-0.446,0.077-1.938,0.423-2.567c0.644-1.17,0.927,0.193,1.021,0.912
		c0.144,1.064,0.117,2.854,0.861,3.725c1,1.168,1.078-1.123,1.09-1.76c0.035-2.25-0.627-4.549-0.474-6.766
		c-0.769,0.965-1.507,0.912-2.713,0.744c-1.14-0.158-2.672-0.428-3.566-1.241c-0.616,1.054-2.753,1.496-3.85,1.012
		c-0.013,0.108,0.003,0.236,0.048,0.343"/>
	<path fill="#4E4D4E" d="M65.124,38.068c-0.989,0-1.769,0.944-1.726,1.896c0.047,1.021,0.91,1.726,1.896,1.726
		c0.988,0,1.77-0.945,1.725-1.896C66.973,38.772,66.111,38.068,65.124,38.068z"/>
	<path fill="#4E4D4E" d="M63.09,48.251c-0.318-1.675-1.841-2.524-3.406-2.572v-0.001c-0.004,0-0.009,0-0.014,0
		c-0.004,0-0.008,0-0.013,0v0.001c-1.563,0.048-3.086,0.897-3.404,2.572c-0.086,0.452-0.008,1.362,0.63,1.459
		c0.408,0.062,0.602-0.519,0.945-0.69c1.075-0.535,1.964,0.731,0.703,1.075c-0.647,0.176-1.702,0.671-1.207,1.272
		c0.426,0.516,2.184-0.4,2.346-0.487c0.164,0.087,1.922,1.003,2.348,0.487c0.496-0.601-0.56-1.096-1.207-1.272
		c-1.262-0.343-0.373-1.61,0.703-1.075c0.344,0.172,0.536,0.752,0.946,0.69C63.1,49.613,63.176,48.703,63.09,48.251z"/>
	<path fill="#4E4D4E" d="M62.282,54.947c-0.929-0.023-1.86-1.193-2.553-1.718c-0.309,0.424-0.539,0.658-0.997,0.925
		c-0.402,0.233-0.912,0.748-1.413,0.661l-0.306,0.062c0.211,0.216,0.758,3.934,2.999,3.934
		C61.572,58.81,62.093,56.005,62.282,54.947z"/>
	<path fill="#4E4D4E" d="M51.824,42.99c-0.751-0.406-1.544-0.771-2.081-1.459c-0.602-0.771-0.318-1.833-0.367-2.729
		c-0.015-0.274-0.464-0.328-0.492-0.04c-0.099,1.02-0.266,1.992,0.221,2.938c0.482,0.937,1.608,1.451,2.551,1.768
		C51.94,43.562,52.068,43.122,51.824,42.99z"/>
	<path fill="#4E4D4E" d="M69.501,39.611c-0.09-0.181-0.413-0.076-0.38,0.123c0.252,1.522-0.374,2.556-1.625,3.389
		c-0.314,0.21-0.001,0.694,0.32,0.494C69.209,42.743,70.322,41.267,69.501,39.611z"/>
	<path fill="#4E4D4E" d="M54.434,31.775c-0.9-0.004-1.354,0.855-2.083,1.236c-0.219,0.114-0.044,0.469,0.184,0.388
		c0.345-0.122,0.616-0.324,0.894-0.558c0.333-0.279,0.674-0.501,1.076-0.67C54.714,32.082,54.672,31.776,54.434,31.775z"/>
	<path fill="#4E4D4E" d="M64.527,30.334c-0.36-0.081-0.467,0.455-0.119,0.553c0.31,0.089,0.611,0.195,0.904,0.333
		c0.321,0.154,0.563,0.393,0.832,0.617c0.135,0.112,0.393,0.024,0.364-0.173C66.391,30.808,65.236,30.494,64.527,30.334z"/>
	<path fill="#4E4D4E" d="M67.047,50.514c-0.525,1.614-0.998,3.338-2.85,3.727c-1.709,0.358-3.157-0.478-4.514-1.243v-0.007
		c-0.002,0.001-0.005,0.002-0.006,0.003c-0.001-0.001-0.004-0.002-0.006-0.003v0.007c-1.361,0.765-2.815,1.601-4.528,1.243
		c-1.856-0.389-2.332-2.113-2.858-3.727c-0.507-0.219-0.274,3.774,2.522,4.437c2.763,0.654,4.381-0.567,4.871-0.708
		c0.489,0.141,2.101,1.362,4.855,0.708C67.32,54.288,67.553,50.294,67.047,50.514z"/>
	<path fill="#4E4D4E" d="M65.566,43.639c-0.092,0.06-0.193,0.087-0.301,0.11c-0.174,0.038-0.324,0.12-0.445,0.249
		c-0.123,0.131-0.014,0.369,0.168,0.352c0.296-0.027,0.638-0.184,0.816-0.433C65.923,43.754,65.751,43.519,65.566,43.639z"/>
	<path fill="#D1CFD1" d="M62.916,63.571c-0.545,0.371-1.068,3.2,0.166,3.108c1.007-0.076,0.594-2.669,0.005-3.108"/>
</g>
<g>
	<polygon fill="#4E4D4E" points="36.841,73.438 47.812,80.299 54.26,76.62 60.1,70.849 60.964,84.155 74.471,73.198 89.498,76.452 
		102.105,86.993 88.482,88.508 59.344,88.709 30.996,87.87 38.177,81.515 	"/>
	<polygon fill="#4E4D4E" points="25.433,70.969 27.294,61.719 9.818,68.497 18.906,86.443 27.853,78.299 28.768,72.071 	"/>
	<path fill="#4E4D4E" d="M101.932,84.038c0.254,0.293-90.694-1.357-90.694-1.357L6.46,103.672l19.069-0.666l3.427-4.352l12.275,4.04
		l6.041-3.495l11.877,2.577l2.88-2.14l3.854,3.396l13.12-4.855l5.22,4.605l7.297-1.979l-0.442-3.275l4.795,3.854l5.5-0.576
		l0.892-2.292l13.637,0.106C115.898,98.622,101.676,83.743,101.932,84.038z"/>
	<g>
		<path fill="#FFFFFF" d="M107.622,85.991c-0.009-0.012-0.017-0.023-0.024-0.033c0.377-0.262,9.271-6.391,8.696-7.029
			c-1.364-1.52-17.147-2.715-17.147-2.715c1.636-0.938,3.797-2.93,3.979-3.471c0.183-0.552-4.144-0.553-5.194-0.582
			c-3.787-0.113-18.133,0.121-18.682,0.146c-0.967,0.047-3.895,0.518-4.355,0.842c-0.369,0.26,3.09,2.674,3.94,3.34
			c-0.101,0.204-0.196,0.422-0.297,0.643c-0.256,0.57-0.435,1.152-0.435,1.152l-1.537-0.613c-1.646-1.008-10.246-3.207-11.42-3.242
			l0,0c-0.799-0.148-2.033-0.27-2.033-0.27s-0.073,2.457-0.078,2.625c-1.042-2.195-2.852-5.062-2.852-5.062
			s-1.697,4.368-1.705,5.155c-0.318-0.627-1.664-2.336-1.664-2.336c-0.301,0.041-1.755,0.922-1.866,1.026
			c0,0,0.547-1.979-0.043-1.844c-0.416,0.094-3.811,2.25-4.76,3.14l-0.967-3.758c0,0-5.489,7.07-6.05,9.422
			c-1.876-3.143-6.183-8.345-6.183-8.345s-1.402,3.214-1.473,5.151c-0.001,0.031-0.002,0.063-0.003,0.097
			c-1.747-1.373-4.7-3.974-5.084-3.986c-0.002,0-0.006,0-0.005,0c0.262,0.009-2.324,2.179-2.78,2.552l-0.334-2.043
			c0,0-2.904-0.394-3.778-0.349c0.919-0.382,4.87-3.073,4.883-3.544c0.012-0.381-3.927-0.814-4.435-0.889
			c-0.287-0.043-0.682-0.094-1.21-0.157c-0.882-0.104-2.133-0.243-3.717-0.407c-0.915-0.095-1.868-0.191-2.79-0.285
			c0.521-0.34,1.059-0.689,1.592-1.039c1.716-1.123,9.234-6.332,9.09-7.517c0,0-8.891,0.301-14.077,1.26
			c-7.995,1.479-8.142,1.63-8.628,2.13L3.59,65.782l0.056,0.87c0.197,2.959,2.236,34.246,2.932,35.201
			c0.439,0.603,8.629-6.28,8.662-9.009c0.007-0.719,0.014-1.604,0.017-2.639c0.153,0.819,2.382,9.197,2.732,9.209
			c0,0,2.62-7.109,3.015-8.752c0.665,0.301,10.115,4.108,10.115,4.108l-0.716-2.425c0.09,0.068,0.181,0.132,0.269,0.201l1.533,1.189
			c0.776-0.255,3.073-3.318,3.12-3.371c0.001,0.273,0.378,7.633,0.815,8.475c0,0,4.053-6.287,4.755-8.111
			c3.667,2.945,6.33,3.729,6.712,4.262c0.37,0.516,0.045-3.121,0.104-3.33c0.838,0.689,8.724,6.166,9.125,5.659
			c0.272-0.342,0.13-2.462,0.143-2.889c1.378,1.01,1.995,2.011,2.517,2.026c0.439,0.013,2.67-2.262,3.472-3.039
			c0.003,0.02-0.004,2.742,0.388,2.76c0,0,5.565-1.5,8.306-2.389c-0.007,0.012-0.379,6.063-0.379,6.063s3.446-1.793,9.479-8.354
			c1.159,0.93,10.35,9.237,10.35,9.237c0.176,0.005,0.471-4.946,0.58-5.851c0.078-0.643,0.166-1.383,0.263-2.225
			c0.161,0.156,4.501,3.649,4.501,3.649s1.593-2.222,1.822-2.517c0,0.094,2.059,6.854,2.728,6.875c0,0,2.39-6.209,3.228-8.022
			c0.787,0.562,11.367,6.655,11.672,5.976C116.404,97.495,108.714,87.338,107.622,85.991z M75.098,85.262
			c-0.781-0.405-1.607-0.829-2.379-1.225c-0.152-0.08-0.309-0.158-0.465-0.238c0.904-0.539,1.848-1.102,2.639-1.592
			c0.99-0.613,1.684-1.043,2.108-1.51C76.426,82.055,75.771,83.629,75.098,85.262z"/>
		<path fill="#4E4D4E" d="M6.46,103.672c-0.145-0.004-0.28-0.078-0.37-0.203c-0.77-1.055-2.641-33.797-2.84-36.79l-0.066-1.046
			l0.728-0.75c0.583-0.598,0.721-0.741,8.841-2.243c5.155-0.954,14.046-1.263,14.136-1.267l0.362-0.012l0.043,0.357
			c0.203,1.669-9.17,7.828-9.265,7.891c-0.22,0.146-0.442,0.29-0.662,0.434c0.564,0.057,1.13,0.115,1.682,0.172
			c1.577,0.164,2.829,0.303,3.724,0.41c0.533,0.063,0.933,0.113,1.222,0.158c0.072,0.01,0.215,0.027,0.406,0.053
			c4.008,0.506,4.381,0.74,4.366,1.236c-0.018,0.616-2.401,2.258-3.929,3.206c1.116,0.101,2.409,0.274,2.481,0.284l0.29,0.041
			l0.269,1.648c0.868-0.731,2.023-1.74,2.167-1.955c-0.038,0.057,0.346-0.243,0.346-0.243s1.47,0.899,3.332,2.442
			c0.48,0.398,0.97,0.805,1.417,1.168c0.283-1.961,1.391-4.516,1.444-4.636l0.256-0.59l0.412,0.496
			c0.164,0.198,3.769,4.562,5.781,7.692c1.264-2.858,5.627-8.496,5.832-8.76l0.495-0.638l1.012,3.931
			c1.324-1.033,3.981-2.713,4.444-2.818c0.236-0.053,0.459,0.027,0.598,0.213c0.183,0.246,0.188,0.699,0.118,1.183
			c0.472-0.272,1.002-0.552,1.228-0.584c0.248-0.04,0.248-0.038,1.085,1.089c0.171,0.229,0.322,0.438,0.453,0.625
			c0.414-1.427,1.297-3.722,1.516-4.285L60.1,70.85l0.418,0.665c0.016,0.022,1.172,1.86,2.168,3.713l0.043-1.5l0.422,0.042
			c0.051,0.005,1.233,0.123,2.041,0.27c1.332,0.071,9.758,2.217,11.553,3.282l1.117,0.445c0.078-0.222,0.188-0.507,0.315-0.793
			c0.056-0.125,0.11-0.246,0.165-0.364c-0.158-0.117-0.349-0.259-0.563-0.417c-2.836-2.096-3.313-2.585-3.307-2.993
			c0-0.148,0.071-0.283,0.192-0.369c0.608-0.428,3.745-0.875,4.565-0.912c0.549-0.026,14.918-0.262,18.713-0.148
			c0.131,0.003,0.313,0.007,0.531,0.012c0.33,0.006,0.74,0.014,1.18,0.025c3.156,0.094,3.59,0.345,3.781,0.617
			c0.092,0.132,0.117,0.293,0.066,0.443c-0.191,0.572-1.744,2.027-3.172,3.047c4.158,0.342,15.006,1.356,16.261,2.754
			c0.099,0.107,0.142,0.25,0.124,0.402c-0.088,0.749-2.964,3.094-8.548,6.973c1.414,1.817,8.726,11.332,8.097,12.74
			c-0.041,0.09-0.171,0.295-0.519,0.285l0,0c-1.38-0.041-9.399-4.678-11.338-5.848c-0.944,2.16-3.013,7.529-3.035,7.587
			l-0.101,0.262l-0.28-0.008c-0.326-0.009-0.695-0.021-1.978-3.673c-0.265-0.75-0.647-1.916-0.895-2.717
			c-0.54,0.744-1.334,1.851-1.344,1.867l-0.246,0.34l-0.326-0.264c-0.561-0.449-2.848-2.293-3.943-3.188
			c-0.063,0.55-0.123,1.053-0.177,1.505c-0.035,0.282-0.09,0.995-0.153,1.821c-0.334,4.389-0.345,4.388-0.832,4.373l-0.146-0.004
			l-0.109-0.098c-0.086-0.078-8.143-7.359-10.048-8.984c-5.852,6.312-9.189,8.086-9.331,8.158l-0.622,0.325l0.043-0.696
			c0.201-3.242,0.295-4.764,0.342-5.488c-2.852,0.893-7.718,2.205-7.77,2.219l-0.061,0.016l-0.062-0.002
			c-0.37-0.017-0.664-0.207-0.745-2.232c-2.016,1.977-2.697,2.522-3.109,2.51c-0.44-0.014-0.81-0.37-1.321-0.867
			c-0.22-0.214-0.474-0.459-0.771-0.717c0.03,1.311-0.009,2.004-0.245,2.3c-0.056,0.071-0.187,0.188-0.427,0.183
			c-1.069-0.031-6.626-3.873-8.596-5.291c0.001,0.043,0.004,0.086,0.005,0.131c0.103,2.145,0.06,2.506-0.147,2.715l-0.122,0.123
			l-0.201,0.007c-0.102-0.002-0.25-0.041-0.373-0.214c-0.087-0.116-0.604-0.385-1.105-0.645C45.066,94,43.245,93.06,41.05,91.354
			c-1.066,2.243-4.426,7.459-4.579,7.697l-0.37,0.576l-0.315-0.606c-0.392-0.758-0.689-5.433-0.805-7.579
			c-1.942,2.434-2.469,2.607-2.654,2.668l-0.201,0.066l-1.002-0.779l0.603,2.043l-0.757-0.307c-0.348-0.139-7.755-3.125-9.704-3.934
			c-0.634,2.18-2.807,8.079-2.906,8.348l-0.099,0.267l-0.285-0.008c-0.356-0.013-0.519-0.017-1.808-4.587
			c-0.187-0.659-0.374-1.342-0.546-1.982c-0.125,2.458-8.131,9.648-8.804,10.29C6.687,103.653,6.551,103.674,6.46,103.672z
			 M3.995,65.93l0.045,0.697c0.194,2.922,1.897,32.045,2.994,34.66c0.493-1.465,6.674-16.828,6.677-17.859l1.934,6.707
			c0.144,0.764,1.598,6.179,2.301,8.242c0.716-1.963,2.371-6.551,2.671-7.805l0.112-0.464l0.438,0.198
			c0.539,0.244,7.084,2.886,9.34,3.797l-0.821-2.783l1.057,0.791c0.056,0.042,0.114,0.084,0.169,0.126l1.327,1.032
			c0.294-0.215,1.038-0.896,2.688-3.037c0.06-0.076,0.096-0.122,0.102-0.128l0.685-0.749l0.003,1.012
			c0.003,0.443,0.287,5.424,0.589,7.477c1.104-1.74,3.684-5.866,4.215-7.254l0.195-0.504l0.424,0.34
			c2.313,1.859,4.248,2.859,5.402,3.455c0.35,0.182,0.628,0.326,0.846,0.455c0.004-0.52-0.033-1.273-0.053-1.709
			c-0.038-0.801-0.042-0.953-0.009-1.067l0.162-0.585l0.471,0.386c0.93,0.765,7.216,5.065,8.603,5.558
			c0.068-0.453,0.038-1.562,0.026-1.963c-0.006-0.24-0.011-0.431-0.008-0.533l0.021-0.75l0.608,0.447
			c0.644,0.469,1.119,0.932,1.502,1.303c0.274,0.267,0.61,0.593,0.761,0.639c0.447-0.195,2.129-1.854,2.772-2.486
			c0.172-0.168,0.322-0.318,0.443-0.435l0.539-0.522l0.125,0.738c0.002,0.004,0.006,0.045,0.008,0.118
			c0.013,1.392,0.104,1.999,0.166,2.253c1.16-0.314,5.658-1.544,8.006-2.309l0.792-0.258l-0.278,0.717
			c-0.029,0.438-0.215,3.437-0.327,5.246c1.244-0.813,4.294-3.047,8.746-7.888l0.251-0.272l0.289,0.23
			c1.01,0.809,7.877,7.004,9.852,8.787c0.095-0.824,0.207-2.299,0.281-3.283c0.064-0.836,0.119-1.557,0.155-1.857
			c0.077-0.641,0.165-1.381,0.263-2.221l0.09-0.795l0.578,0.559c0.146,0.134,2.449,1.996,4.147,3.363
			c0.458-0.639,1.409-1.959,1.587-2.188l0.71-0.91l-0.002,1.108c0.162,0.65,1.489,4.791,2.203,6.158
			c0.629-1.625,2.313-5.941,2.998-7.428l0.2-0.434l0.39,0.279c0.767,0.545,9.153,5.34,11.045,5.901
			c-0.508-1.735-6.203-9.539-8.19-11.993l-0.264-0.328l0.375-0.311c4.527-3.135,7.895-5.742,8.439-6.521
			c-1.5-0.99-10.928-2.029-16.748-2.472L97.84,76.51l1.108-0.637c1.475-0.847,3.155-2.399,3.659-3.035
			c-0.33-0.08-1.113-0.192-2.978-0.248c-0.437-0.014-0.845-0.022-1.171-0.027c-0.223-0.005-0.406-0.007-0.541-0.012
			c-3.783-0.111-18.104,0.123-18.65,0.148c-0.896,0.043-2.99,0.395-3.828,0.645c0.562,0.556,2.094,1.689,2.81,2.218
			c0.353,0.261,0.649,0.478,0.829,0.621l0.251,0.196l-0.142,0.285c-0.099,0.197-0.191,0.405-0.289,0.619
			c-0.246,0.549-0.42,1.111-0.422,1.117l-0.125,0.409l-0.109-0.045l-0.881,2.086c-0.573,1.358-1.229,2.931-1.9,4.562l-0.164,0.397
			l-0.385-0.198c-0.736-0.383-1.512-0.779-2.243-1.154l-1.229-0.633l0.608-0.363c0.841-0.498,1.812-1.078,2.632-1.586
			c0.951-0.59,1.637-1.015,2.022-1.438l1.524-1.677l-1.871-0.752c-1.6-0.98-10.178-3.153-11.226-3.186l-0.062-0.007
			c-0.488-0.09-1.152-0.172-1.578-0.22l-0.114,3.836l-0.703-1.48c-0.717-1.509-1.815-3.363-2.409-4.341
			c-0.625,1.654-1.39,3.821-1.394,4.271l-0.015,1.617l-0.734-1.443c-0.223-0.439-1.065-1.553-1.445-2.045
			c-0.432,0.207-1.32,0.734-1.471,0.854l-0.949,0.756l0.307-1.154c0.126-0.459,0.211-0.971,0.218-1.26
			c-0.837,0.437-3.528,2.16-4.368,2.945l-0.488,0.458l-0.932-3.614c-1.352,1.787-5.045,6.789-5.483,8.625l-0.227,0.946l-0.499-0.837
			c-1.497-2.507-4.602-6.395-5.728-7.781c-0.399,1.01-1.143,3.053-1.192,4.403l-0.03,0.854l-0.613-0.465
			c-0.584-0.459-1.308-1.06-2.008-1.641c-0.937-0.775-2.167-1.795-2.7-2.15c-0.35,0.391-1.102,1.068-2.665,2.352l-0.532,0.438
			l-0.398-2.433c-0.746-0.097-2.735-0.343-3.414-0.306l-2.28,0.119l2.107-0.875c0.779-0.324,3.645-2.279,4.46-3.06
			c-0.436-0.123-1.412-0.308-3.494-0.569c-0.199-0.025-0.349-0.044-0.424-0.055c-0.284-0.043-0.677-0.094-1.2-0.154
			c-0.891-0.107-2.14-0.244-3.711-0.406c-0.914-0.097-1.866-0.192-2.789-0.287L15.069,70.6l0.933-0.605
			c0.522-0.341,1.058-0.688,1.593-1.041c3.106-2.033,7.679-5.445,8.706-6.77c-2.101,0.088-9.09,0.432-13.404,1.229
			c-7.871,1.457-8.019,1.608-8.416,2.017L3.995,65.93z M73.064,83.773c0.599,0.308,1.222,0.628,1.832,0.942
			c0.396-0.959,0.783-1.895,1.149-2.771c-0.28,0.186-0.595,0.379-0.942,0.594C74.469,82.933,73.747,83.366,73.064,83.773z"/>
	</g>
	<g>
		<path fill="#4E4D4E" d="M24.08,73.208c0.206-0.151-12.762-1.395-13.658-1.486c0.605-0.383,12.452-7.985,12.12-8.096
			c-1.109-0.375-16.935,2.727-16.924,2.897C5.911,70.94,6.844,94.5,7.693,95.69c0.205,0.287,5.556-17.02,5.549-18.341
			C14.142,77.172,23.724,73.472,24.08,73.208z"/>
		<path fill="#4E4D4E" d="M53.356,76.799c0.19-0.625-3.323,2.848-5.895,5.752c0.285-1.752,0.568-3.516,0.678-5.271
			c0.022-0.354-4.567,8.682-4.851,9.383c-0.367-0.566-4.414-7.65-5.701-9.043c-0.095-0.102-0.182,2.611-0.235,5.85
			c-1.881-1.584-6.368-5.045-6.867-5.383c-0.329-0.223-6.919,6.461-6.728,6.586c1.455,0.941,2.745,2.193,4.072,3.304
			c1.294,1.083,2.715,1.991,4.052,3.019c0.178,0.137,3.671-3.818,5.447-5.805c-0.052,4.331-0.04,8.878,0.092,8.697
			c0.262-0.361,2.231-5.223,2.548-6.449c0.208,0.169,5.574,4.598,5.666,4.289c0.357-1.207,0.652-2.445,0.904-3.691
			c2.968,2.77,8.651,6.988,8.461,6.303c-0.173-0.627-5.601-8.773-5.478-9.045C49.691,84.924,53.344,76.834,53.356,76.799z
			 M31.688,85.185c-0.234,0.276-0.498,0.544-0.696,0.847c-0.027,0.041-1.437-1.33-1.389-1.398c0.091-0.133,1.266-1.629,1.299-1.598
			c0.228,0.209,1.457,1.264,1.422,1.307C32.108,84.622,31.917,84.917,31.688,85.185z"/>
		<path fill="#4E4D4E" d="M20.554,84.538c-0.131-0.113-0.262-0.226-0.391-0.34c-0.026-0.035-0.049-0.063-0.07-0.086
			c0.273-0.265,0.531-0.547,0.795-0.82c0.638-0.666,1.286-1.32,1.93-1.98c1.111-1.141,2.264-2.313,2.99-3.745
			c0.145-0.282-10.577,0.556-10.569,0.788c0.042,1.139,2.824,16.568,2.908,16.021c0.07-0.461,1.193-5.476,1.547-6.485
			c0.646,0.33,8.233,3.821,8.859,3.663C28.882,91.467,21.918,85.692,20.554,84.538z M19.111,81.743l-0.275-1.813l2.063,0.062
			L19.111,81.743z"/>
		<path fill="#4E4D4E" d="M76.5,88.019c-2.535-1.343-7.175-3.681-7.855-4.082c0.408-0.345,7.567-4.405,7.278-4.583
			c-1.442-0.882-10.5-3.145-10.506-2.938c-0.034,1.313-0.185,5.562-0.246,9.498c-1.254-3.402-4.166-9.904-4.629-10.318
			c-0.269-0.24,0.574,11.179,0.718,11.718c-0.305,0.161-1.627,1.421-1.917,1.396c-0.388-0.033-2.009-1.793-2.222-1.963
			c-0.274-0.222-0.479-6.584-0.388-9.449c0-0.002,0-0.004,0-0.004c0.004-0.121,0.008-0.242,0.011-0.363
			c0.017-0.555-5.047,9.232-4.558,9.883c1.204,1.604,7.125,7.283,7.917,6.799c1.211-0.738,3.859-3.583,5.041-4.955
			c-0.002,2.75,0.076,4.858,0.332,4.869c0.854,0.04,6.547-1.65,10.012-3.021c-1.307,3.229-2.293,5.761-2.205,5.752
			c1.082-0.092,7.214-6.963,7.51-7.272c0.352-0.366,5.938,4.746,7.479,6.175c0.295,0.272-6.135-16.875-7.039-18.201
			C81.148,76.833,78.669,82.715,76.5,88.019z M68.241,79.204l1.958,0.775l-2.004,0.76L68.241,79.204z M71.366,87.911
			c-0.777,0.243-2.935,1.443-2.935,1.443s0.142-1.963,0.065-2.211C68.498,87.143,70.602,87.786,71.366,87.911
			c0.151-0.047,0.252-0.059,0.272-0.019C71.666,87.94,71.557,87.94,71.366,87.911z M81.87,86.045l-1.472-0.484l0.773-2.88
			L81.87,86.045z"/>
		<path fill="#4E4D4E" d="M105.583,86.124c-0.122-0.154-0.244-0.309-0.364-0.465c-0.021-0.045-0.041-0.082-0.059-0.113
			c0.365-0.236,0.715-0.496,1.072-0.744c0.858-0.607,1.728-1.2,2.595-1.799c1.495-1.035,3.043-2.096,4.171-3.543
			c0.225-0.285-11.96-1.672-12.002-1.412c-0.069,0.43-0.145,2.722-0.211,5.558c-1.764-1.599-4.18-3.688-4.838-4.294
			c-0.114-0.105-2.932,3.406-4.738,5.716c0.379-3.489,0.688-6.431,0.716-6.747c1.296-0.303,6.851-3.527,7.28-4.061
			c0.229-0.283-18.987,0.039-19.464,0.061c-0.371,0.018,5.329,4.172,6.723,4.607c0.08,1.438,2.527,17.266,3.25,18.597
			c0.077,0.144,0.606-4.418,1.129-9.133c1.866,2.006,5.437,5.413,5.527,5.274c0.948-1.444,2.21-2.727,3.328-4.043
			c0.349-0.412,0.677-0.836,1-1.269c-0.067,4.449-0.081,8.587,0.024,8.296c0.18-0.502,2.541-5.869,3.158-6.922
			c0.648,0.51,8.373,6.063,9.108,6.021C113.378,95.687,106.855,87.713,105.583,86.124z M96.184,87.963l-1.307-1.186l1.133-1.984
			l1.614,1.279L96.184,87.963z M103.787,83.461c0,0,0.061-2.031,0.066-2.289l2.443,0.236L103.787,83.461z"/>
	</g>
</g>
</svg>
